<svg xmlns="http://www.w3.org/2000/svg" viewBox="0 0 32 32"><title>file_type_vlt2</title><path d="M0 138.776C0 24.494 24.494 0 138.776 0h140.448C393.506 0 418 24.494 418 138.776v140.448C418 393.506 393.506 418 279.224 418H138.776C24.494 418 0 393.506 0 279.224z" style="fill:#fff" transform="translate(2 2)scale(.06699)"/><path d="M290.671 102c22.497 0 40.734 18.237 40.734 40.733 0 22.497-18.237 40.735-40.734 40.735-6.486 0-13.147 2.453-16.387 8.073l-26.711 46.325c-5.798 10.058-3.132 22.642.42 33.694a40.7 40.7 0 0 1 1.944 12.47c0 22.497-18.237 40.735-40.733 40.735-22.497 0-40.734-18.238-40.734-40.735 0-4.349.682-8.539 1.944-12.468 3.551-11.052 6.216-23.635.417-33.692l-26.713-46.331c-3.239-5.618-9.899-8.071-16.385-8.071-22.496 0-40.733-18.238-40.733-40.735C87 120.237 105.237 102 127.733 102c22.498 0 40.735 18.237 40.736 40.733 0 4.35-.683 8.541-1.946 12.471-3.552 11.052-6.217 23.635-.419 33.692l26.711 46.326c3.239 5.62 9.901 8.075 16.389 8.075 6.484 0 13.143-2.454 16.382-8.072l26.713-46.331c5.799-10.056 3.134-22.64-.417-33.691a40.7 40.7 0 0 1-1.946-12.47c.001-22.496 18.238-40.733 40.735-40.733" style="fill:#000" transform="translate(2 2)scale(.06699)"/></svg>